<?xml version="1.0" standalone="no"?>
<!DOCTYPE svg PUBLIC "-//W3C//DTD SVG 20010904//EN"
 "http://www.w3.org/TR/2001/REC-SVG-20010904/DTD/svg10.dtd">
<svg version="1.0" xmlns="http://www.w3.org/2000/svg"
 width="600.000000pt" height="600.000000pt" viewBox="0 0 600.000000 600.000000"
 preserveAspectRatio="xMidYMid meet">

<g transform="translate(0.000000,600.000000) scale(0.100000,-0.100000)"
fill="#000000" stroke="none">
<path d="M976 3505 c-84 -30 -146 -104 -166 -200 -34 -165 -151 -276 -306
-291 -55 -5 -81 0 -181 31 l-23 7 0 -276 0 -276 253 2 252 3 5 215 c3 118 9
223 13 232 20 41 58 53 182 59 137 6 176 20 236 81 42 44 69 111 69 173 0 172
-174 297 -334 240z"/>
<path d="M4400 3206 l0 -175 -50 34 c-60 40 -96 49 -188 43 -114 -6 -198 -63
-246 -167 -30 -65 -30 -207 0 -272 30 -63 79 -116 138 -147 44 -23 63 -27 136
-27 91 0 129 13 183 63 l27 26 0 -42 0 -42 60 0 60 0 0 440 0 440 -60 0 -60 0
0 -174z m-117 -220 c41 -17 91 -74 107 -121 28 -84 -18 -199 -95 -239 -60 -31
-140 -28 -194 7 -120 80 -114 284 11 346 50 24 123 28 171 7z"/>
<path d="M1820 2925 l0 -426 63 3 62 3 3 168 2 167 99 0 c78 0 101 -3 112 -16
7 -9 52 -84 100 -168 l86 -151 72 -3 c45 -2 71 1 71 8 0 6 -44 85 -97 177 -54
92 -92 168 -87 170 6 2 31 16 55 32 126 79 139 288 25 389 -71 62 -88 66 -338
70 l-228 4 0 -427z m440 287 c74 -36 93 -152 34 -213 -38 -40 -78 -49 -221
-49 l-123 0 0 140 0 140 138 0 c110 0 144 -3 172 -18z"/>
<path d="M2725 3097 c-92 -36 -153 -98 -182 -181 -24 -73 -22 -178 6 -242 27
-63 90 -126 156 -156 71 -32 189 -32 262 1 47 21 133 98 133 119 0 5 -20 23
-43 40 l-44 31 -22 -29 c-31 -43 -91 -70 -152 -70 -93 0 -164 51 -184 132 l-7
28 233 2 234 3 0 55 c0 110 -64 212 -160 256 -39 19 -66 24 -125 23 -41 0 -88
-6 -105 -12z m185 -116 c38 -20 80 -73 80 -102 0 -18 -11 -19 -165 -19 -157 0
-165 1 -165 20 0 26 57 90 95 106 43 19 115 17 155 -5z"/>
<path d="M3435 3091 c-22 -10 -47 -26 -55 -36 -14 -17 -15 -16 -20 11 -5 28
-7 29 -68 32 l-62 3 0 -301 0 -300 59 0 59 0 4 193 c3 215 11 242 78 281 43
25 122 26 167 3 60 -32 67 -59 70 -277 l3 -195 58 0 57 0 0 220 c0 206 -1 222
-22 260 -27 51 -68 90 -115 109 -52 22 -162 20 -213 -3z"/>
<path d="M4829 3096 c-135 -48 -206 -161 -197 -315 7 -121 63 -207 166 -258
80 -39 191 -40 273 -2 55 26 129 91 129 114 0 12 -62 65 -76 65 -4 0 -26 -18
-49 -39 -26 -24 -58 -42 -80 -47 -55 -10 -133 1 -163 23 -37 27 -72 81 -72
109 l0 24 230 0 230 0 0 55 c0 119 -76 235 -177 269 -56 19 -164 20 -214 2z
m181 -114 c37 -18 80 -74 80 -103 0 -18 -11 -19 -165 -19 -109 0 -165 4 -165
10 0 35 56 101 100 119 40 16 112 13 150 -7z"/>
<path d="M5545 3101 c-11 -5 -35 -24 -53 -42 l-32 -33 0 37 0 37 -60 0 -60 0
0 -300 0 -300 59 0 59 0 4 198 c3 185 4 199 26 234 29 47 93 73 156 65 l44 -6
6 51 c5 37 4 53 -6 59 -17 11 -117 10 -143 0z"/>
</g>
</svg>
